<?xml version="1.0" encoding="UTF-8"?>
<!DOCTYPE svg PUBLIC "-//W3C//DTD SVG 1.1//EN" "http://www.w3.org/Graphics/SVG/1.1/DTD/svg11.dtd">
<svg xmlns="http://www.w3.org/2000/svg" version="1.1" width="291px" height="164px" style="shape-rendering:geometricPrecision; text-rendering:geometricPrecision; image-rendering:optimizeQuality; fill-rule:evenodd; clip-rule:evenodd" xmlns:xlink="http://www.w3.org/1999/xlink">
<g><path style="opacity:1" fill="#778469" d="M -0.5,-0.5 C 96.5,-0.5 193.5,-0.5 290.5,-0.5C 290.5,54.1667 290.5,108.833 290.5,163.5C 193.5,163.5 96.5,163.5 -0.5,163.5C -0.5,108.833 -0.5,54.1667 -0.5,-0.5 Z"/></g>
<g><path style="opacity:1" fill="#edf0ed" d="M 192.5,28.5 C 196.681,29.6604 201.015,30.6604 205.5,31.5C 206.167,31.5 206.833,31.5 207.5,31.5C 209.102,33.0739 211.102,33.7406 213.5,33.5C 217.94,35.5376 222.607,37.2042 227.5,38.5C 241.37,43.8625 253.536,51.8625 264,62.5C 272.266,74.2886 272.599,86.2886 265,98.5C 255.191,109.821 243.357,118.321 229.5,124C 221.528,126.825 213.528,129.325 205.5,131.5C 200.206,131.625 195.206,132.625 190.5,134.5C 189.833,134.5 189.167,134.5 188.5,134.5C 185.848,134.41 183.515,135.076 181.5,136.5C 178.5,136.5 175.5,136.5 172.5,136.5C 153.169,137.745 133.836,137.745 114.5,136.5C 106.37,135.806 98.3696,134.473 90.5,132.5C 88.4855,131.076 86.1522,130.41 83.5,130.5C 80.4954,128.723 77.1621,127.723 73.5,127.5C 54.3611,122.864 38.8611,112.864 27,97.5C 20.2219,84.4969 21.2219,72.1636 30,60.5C 40.3605,49.9065 52.5272,42.2399 66.5,37.5C 69.1522,37.5905 71.4855,36.9238 73.5,35.5C 76.869,33.4893 80.5357,32.4893 84.5,32.5C 87.3973,31.871 90.064,30.871 92.5,29.5C 94.1667,29.5 95.8333,29.5 97.5,29.5C 102.727,29.0217 107.727,28.0217 112.5,26.5C 139.349,23.3631 166.016,24.0297 192.5,28.5 Z"/></g>
<g><path style="opacity:1" fill="#bdc4b8" d="M 112.5,26.5 C 107.727,28.0217 102.727,29.0217 97.5,29.5C 102.089,27.125 107.089,26.125 112.5,26.5 Z"/></g>
<g><path style="opacity:1" fill="#9ea895" d="M 192.5,28.5 C 197.312,27.9645 201.645,28.9645 205.5,31.5C 201.015,30.6604 196.681,29.6604 192.5,28.5 Z"/></g>
<g><path style="opacity:1" fill="#78856b" d="M 167.5,128.5 C 165.033,128.755 163.033,129.755 161.5,131.5C 160.833,131.5 160.167,131.5 159.5,131.5C 152.196,132.302 144.862,132.635 137.5,132.5C 137.167,132.5 136.833,132.5 136.5,132.5C 132.767,130.589 128.767,129.256 124.5,128.5C 108.497,120.311 98.6638,107.311 95,89.5C 92.7619,62.4285 103.929,43.2619 128.5,32C 154.548,25.2835 175.381,32.7835 191,54.5C 204.301,81.4603 199.468,104.627 176.5,124C 173.447,125.527 170.447,127.027 167.5,128.5 Z"/></g>
<g><path style="opacity:1" fill="#afb7a8" d="M 92.5,29.5 C 90.064,30.871 87.3973,31.871 84.5,32.5C 86.6174,30.3455 89.284,29.3455 92.5,29.5 Z"/></g>
<g><path style="opacity:1" fill="#a9b2a1" d="M 207.5,31.5 C 209.898,31.2594 211.898,31.9261 213.5,33.5C 211.102,33.7406 209.102,33.0739 207.5,31.5 Z"/></g>
<g><path style="opacity:1" fill="#a9b2a1" d="M 182.5,34.5 C 181.209,34.2627 180.209,34.596 179.5,35.5C 176.985,34.9254 176.485,33.9254 178,32.5C 179.728,32.899 181.228,33.5657 182.5,34.5 Z"/></g>
<g><path style="opacity:1" fill="#acb5a5" d="M 213.5,33.5 C 218.703,34.0094 223.37,35.6761 227.5,38.5C 222.607,37.2042 217.94,35.5376 213.5,33.5 Z"/></g>
<g><path style="opacity:1" fill="#949f89" d="M 110.5,36.5 C 109.432,35.5655 108.099,35.2322 106.5,35.5C 109.41,33.2248 112.744,32.3915 116.5,33C 114.937,34.9473 112.937,36.114 110.5,36.5 Z"/></g>
<g><path style="opacity:1" fill="#78856b" d="M 182.5,34.5 C 201.26,39.1015 216.427,49.1015 228,64.5C 229.868,67.6051 231.035,70.9385 231.5,74.5C 231.5,75.8333 231.5,77.1667 231.5,78.5C 221.572,79.1001 211.905,78.4334 202.5,76.5C 201.12,59.163 193.453,45.4964 179.5,35.5C 180.209,34.596 181.209,34.2627 182.5,34.5 Z"/></g>
<g><path style="opacity:1" fill="#79866b" d="M 106.5,35.5 C 108.099,35.2322 109.432,35.5655 110.5,36.5C 99.6754,46.1455 93.0088,58.1455 90.5,72.5C 89.5386,74.2646 89.2053,76.2646 89.5,78.5C 79.8333,78.5 70.1667,78.5 60.5,78.5C 60.8405,72.6449 62.6739,67.3115 66,62.5C 76.3329,48.5947 89.8329,39.5947 106.5,35.5 Z"/></g>
<g><path style="opacity:1" fill="#c1c8bb" d="M 73.5,35.5 C 71.4855,36.9238 69.1522,37.5905 66.5,37.5C 68.5145,36.0762 70.8478,35.4095 73.5,35.5 Z"/></g>
<g><path style="opacity:1" fill="#7a876d" d="M 55.5,78.5 C 45.985,78.8269 36.6517,78.4936 27.5,77.5C 30.0777,67.5408 35.7444,59.7075 44.5,54C 58.355,45.8329 73.1883,39.6662 89,35.5C 89.8333,35.6667 90.6667,35.8333 91.5,36C 71.9379,44.0399 59.9379,58.2066 55.5,78.5 Z"/></g>
<g><path style="opacity:1" fill="#7b886d" d="M 213.5,38.5 C 216.505,40.2766 219.838,41.2766 223.5,41.5C 235.361,46.4347 246.361,52.9347 256.5,61C 258.667,63.8333 260.833,66.6667 263,69.5C 264.727,72.6179 265.561,75.9513 265.5,79.5C 256.161,79.6665 246.827,79.4998 237.5,79C 235.385,65.2234 228.719,54.2234 217.5,46C 211.998,42.4145 206.331,39.0812 200.5,36C 204.951,36.0273 209.284,36.8606 213.5,38.5 Z"/></g>
<g><path style="opacity:1" fill="#b9c0b3" d="M 213.5,38.5 C 217.162,38.7234 220.495,39.7234 223.5,41.5C 219.838,41.2766 216.505,40.2766 213.5,38.5 Z"/></g>
<g><path style="opacity:1" fill="#eff2ef" d="M 127.5,52.5 C 130.755,52.0136 133.422,53.0136 135.5,55.5C 139.599,63.5818 139.432,71.5818 135,79.5C 131.286,83.6926 127.953,83.3592 125,78.5C 120.95,69.2072 121.783,60.5406 127.5,52.5 Z"/></g>
<g><path style="opacity:1" fill="#f0f2f0" d="M 158.5,52.5 C 161.755,52.0136 164.422,53.0136 166.5,55.5C 170.53,63.553 170.364,71.553 166,79.5C 163.872,82.4578 161.206,83.1244 158,81.5C 153.784,75.1191 152.451,68.1191 154,60.5C 154.738,57.3515 156.238,54.6848 158.5,52.5 Z"/></g>
<g><path style="opacity:1" fill="#828e75" d="M 162.5,55.5 C 164.722,55.5587 165.722,56.7253 165.5,59C 164.167,63.6667 162.833,63.6667 161.5,59C 161.648,57.7441 161.982,56.5774 162.5,55.5 Z"/></g>
<g><path style="opacity:1" fill="#7e8b71" d="M 130.5,56.5 C 131.5,56.5 132.5,56.5 133.5,56.5C 133.5,58.5 133.5,60.5 133.5,62.5C 132.5,62.5 131.5,62.5 130.5,62.5C 130.5,60.5 130.5,58.5 130.5,56.5 Z"/></g>
<g><path style="opacity:1" fill="#afb6a7" d="M 27.5,77.5 C 36.6517,78.4936 45.985,78.8269 55.5,78.5C 45.992,79.8225 36.3254,79.8225 26.5,78.5C 26.6236,77.8933 26.9569,77.56 27.5,77.5 Z"/></g>
<g><path style="opacity:1" fill="#afb7a7" d="M 90.5,72.5 C 90.5,74.8333 90.5,77.1667 90.5,79.5C 80.3194,79.8274 70.3194,79.494 60.5,78.5C 70.1667,78.5 79.8333,78.5 89.5,78.5C 89.2053,76.2646 89.5386,74.2646 90.5,72.5 Z"/></g>
<g><path style="opacity:1" fill="#adb5a5" d="M 231.5,74.5 C 232.451,75.9187 232.784,77.5853 232.5,79.5C 222.5,79.5 212.5,79.5 202.5,79.5C 202.5,78.5 202.5,77.5 202.5,76.5C 211.905,78.4334 221.572,79.1001 231.5,78.5C 231.5,77.1667 231.5,75.8333 231.5,74.5 Z"/></g>
<g><path style="opacity:1" fill="#9ea895" d="M 27.5,84.5 C 36.9856,83.5062 46.6522,83.1729 56.5,83.5C 56.5,84.8333 56.5,86.1667 56.5,87.5C 55.596,86.791 55.2627,85.791 55.5,84.5C 46.1667,84.5 36.8333,84.5 27.5,84.5 Z"/></g>
<g><path style="opacity:1" fill="#9fa996" d="M 60.5,84.5 C 70.3194,83.506 80.3194,83.1726 90.5,83.5C 90.5,85.1667 90.5,86.8333 90.5,88.5C 89.5655,87.4324 89.2322,86.099 89.5,84.5C 79.8333,84.5 70.1667,84.5 60.5,84.5 Z"/></g>
<g><path style="opacity:1" fill="#9da795" d="M 231.5,86.5 C 222.56,84.5278 213.227,83.8611 203.5,84.5C 203.737,85.791 203.404,86.791 202.5,87.5C 202.5,86.1667 202.5,84.8333 202.5,83.5C 212.5,83.5 222.5,83.5 232.5,83.5C 232.737,84.791 232.404,85.791 231.5,86.5 Z"/></g>
<g><path style="opacity:1" fill="#9ca693" d="M 265.5,84.5 C 256.167,84.5 246.833,84.5 237.5,84.5C 237.737,85.791 237.404,86.791 236.5,87.5C 236.5,86.1667 236.5,84.8333 236.5,83.5C 246.348,83.1729 256.014,83.5062 265.5,84.5 Z"/></g>
<g><path style="opacity:1" fill="#7a876d" d="M 27.5,84.5 C 36.8333,84.5 46.1667,84.5 55.5,84.5C 55.2627,85.791 55.596,86.791 56.5,87.5C 59.3721,100.742 66.3721,111.242 77.5,119C 82.1867,121.699 86.8534,124.366 91.5,127C 88.2799,127.32 85.2799,126.82 82.5,125.5C 80.4855,124.076 78.1522,123.41 75.5,123.5C 58.2746,118.752 43.7746,109.752 32,96.5C 29.646,92.797 28.146,88.797 27.5,84.5 Z"/></g>
<g><path style="opacity:1" fill="#79866b" d="M 60.5,84.5 C 70.1667,84.5 79.8333,84.5 89.5,84.5C 89.2322,86.099 89.5655,87.4324 90.5,88.5C 92.7941,104.767 100.461,117.767 113.5,127.5C 113.265,128.097 112.765,128.43 112,128.5C 107.554,126.85 103.054,125.517 98.5,124.5C 78.6245,117.959 65.9578,104.626 60.5,84.5 Z"/></g>
<g><path style="opacity:1" fill="#79866b" d="M 231.5,86.5 C 230.221,94.059 227.054,100.726 222,106.5C 213.597,114.436 204.097,120.436 193.5,124.5C 191.033,124.755 189.033,125.755 187.5,127.5C 186.167,127.5 184.833,127.5 183.5,127.5C 181.302,127.591 180.969,126.925 182.5,125.5C 193.897,115.374 200.564,102.708 202.5,87.5C 203.404,86.791 203.737,85.791 203.5,84.5C 213.227,83.8611 222.56,84.5278 231.5,86.5 Z"/></g>
<g><path style="opacity:1" fill="#7a866c" d="M 265.5,84.5 C 263.505,93.3036 258.838,100.47 251.5,106C 244.518,110.823 237.184,114.989 229.5,118.5C 227.033,118.755 225.033,119.755 223.5,121.5C 217.954,123.346 212.287,125.013 206.5,126.5C 205.209,126.737 204.209,126.404 203.5,125.5C 215.989,119.515 225.823,110.515 233,98.5C 234.274,94.8463 235.44,91.1796 236.5,87.5C 237.404,86.791 237.737,85.791 237.5,84.5C 246.833,84.5 256.167,84.5 265.5,84.5 Z"/></g>
<g><path style="opacity:1" fill="#97a18d" d="M 181.5,85.5 C 180.503,85.4701 179.836,85.9701 179.5,87C 181.968,89.5385 181.968,92.0385 179.5,94.5C 179.167,91.1667 178.833,87.8333 178.5,84.5C 179.791,84.2627 180.791,84.596 181.5,85.5 Z"/></g>
<g><path style="opacity:1" fill="#e4e7e2" d="M 179.5,94.5 C 181.968,92.0385 181.968,89.5385 179.5,87C 179.836,85.9701 180.503,85.4701 181.5,85.5C 181.47,86.4972 181.97,87.1639 183,87.5C 184.3,86.2927 185.8,85.6261 187.5,85.5C 184.235,90.6916 181.402,96.3583 179,102.5C 168.299,116.409 154.133,121.909 136.5,119C 122.295,114.295 112.961,104.795 108.5,90.5C 105.832,89.485 105.166,87.8183 106.5,85.5C 108.564,87.9779 110.564,87.9779 112.5,85.5C 112.833,86 113.167,86.5 113.5,87C 112.833,88.3333 112.167,89.6667 111.5,91C 120.888,114.197 137.554,121.863 161.5,114C 170.135,109.867 176.135,103.367 179.5,94.5 Z"/></g>
<g><path style="opacity:1" fill="#c2c9bd" d="M 229.5,118.5 C 227.967,120.245 225.967,121.245 223.5,121.5C 225.033,119.755 227.033,118.755 229.5,118.5 Z"/></g>
<g><path style="opacity:1" fill="#afb7a7" d="M 75.5,123.5 C 78.1522,123.41 80.4855,124.076 82.5,125.5C 79.8478,125.59 77.5145,124.924 75.5,123.5 Z"/></g>
<g><path style="opacity:1" fill="#a7b09f" d="M 98.5,124.5 C 103.054,125.517 107.554,126.85 112,128.5C 112.765,128.43 113.265,128.097 113.5,127.5C 116.015,128.075 116.515,129.075 115,130.5C 109.144,129.162 103.644,127.162 98.5,124.5 Z"/></g>
<g><path style="opacity:1" fill="#c0c6ba" d="M 193.5,124.5 C 191.967,126.245 189.967,127.245 187.5,127.5C 189.033,125.755 191.033,124.755 193.5,124.5 Z"/></g>
<g><path style="opacity:1" fill="#959f8a" d="M 182.5,125.5 C 180.969,126.925 181.302,127.591 183.5,127.5C 181.604,128.481 179.604,129.481 177.5,130.5C 177.167,130.167 176.833,129.833 176.5,129.5C 178.264,127.722 180.264,126.389 182.5,125.5 Z"/></g>
<g><path style="opacity:1" fill="#c3c9be" d="M 73.5,127.5 C 77.1621,127.723 80.4954,128.723 83.5,130.5C 79.8379,130.277 76.5046,129.277 73.5,127.5 Z"/></g>
<g><path style="opacity:1" fill="#bdc4b7" d="M 203.5,125.5 C 204.209,126.404 205.209,126.737 206.5,126.5C 204.513,127.343 202.346,128.01 200,128.5C 199.5,128.167 199,127.833 198.5,127.5C 200.022,126.438 201.688,125.771 203.5,125.5 Z"/></g>
<g><path style="opacity:1" fill="#9fa896" d="M 124.5,128.5 C 128.767,129.256 132.767,130.589 136.5,132.5C 132.085,132.139 128.085,130.806 124.5,128.5 Z"/></g>
<g><path style="opacity:1" fill="#bec5b9" d="M 167.5,128.5 C 165.967,130.245 163.967,131.245 161.5,131.5C 163.033,129.755 165.033,128.755 167.5,128.5 Z"/></g>
<g><path style="opacity:1" fill="#b3bbad" d="M 83.5,130.5 C 86.1522,130.41 88.4855,131.076 90.5,132.5C 87.8478,132.59 85.5145,131.924 83.5,130.5 Z"/></g>
<g><path style="opacity:1" fill="#bac1b4" d="M 205.5,131.5 C 200.744,133.118 195.744,134.118 190.5,134.5C 195.206,132.625 200.206,131.625 205.5,131.5 Z"/></g>
<g><path style="opacity:1" fill="#a7b09f" d="M 159.5,131.5 C 158.737,132.268 157.737,132.768 156.5,133C 149.986,133.82 143.653,133.653 137.5,132.5C 144.862,132.635 152.196,132.302 159.5,131.5 Z"/></g>
<g><path style="opacity:1" fill="#adb5a5" d="M 188.5,134.5 C 186.485,135.924 184.152,136.59 181.5,136.5C 183.515,135.076 185.848,134.41 188.5,134.5 Z"/></g>
<g><path style="opacity:1" fill="#bfc6b9" d="M 114.5,136.5 C 133.836,137.745 153.169,137.745 172.5,136.5C 162.708,137.974 152.708,138.641 142.5,138.5C 132.952,138.677 123.618,138.01 114.5,136.5 Z"/></g>
</svg>
